G04 MADE WITH FRITZING*
G04 WWW.FRITZING.ORG*
G04 DOUBLE SIDED*
G04 HOLES PLATED*
G04 CONTOUR ON CENTER OF CONTOUR VECTOR*
%ASAXBY*%
%FSLAX23Y23*%
%MOIN*%
%OFA0B0*%
%SFA1.0B1.0*%
%ADD10C,0.066000*%
%ADD11C,0.039370*%
%ADD12C,0.075000*%
%ADD13C,0.086000*%
%ADD14C,0.138425*%
%ADD15C,0.070000*%
%ADD16C,0.080000*%
%ADD17R,0.080000X0.080000*%
%ADD18C,0.024000*%
%LNCOPPER1*%
G90*
G70*
G54D10*
X2864Y1911D03*
X2764Y1911D03*
X2664Y1911D03*
X2564Y1911D03*
X2464Y1911D03*
X2364Y1911D03*
X2264Y1911D03*
X2164Y1911D03*
X2064Y1911D03*
X1964Y1911D03*
X1864Y1911D03*
X1764Y1911D03*
X1664Y1911D03*
X1564Y1911D03*
X1464Y1911D03*
X1364Y1911D03*
X1764Y2711D03*
X1864Y2711D03*
X1964Y2711D03*
X2064Y2711D03*
X2164Y2711D03*
X2264Y2711D03*
X2364Y2711D03*
X2464Y2711D03*
X2564Y2711D03*
X2664Y2711D03*
X2764Y2711D03*
X2864Y2711D03*
G54D11*
X3464Y2511D03*
X3364Y1511D03*
X3364Y2411D03*
X2264Y2411D03*
X3164Y1511D03*
X2764Y1511D03*
X2964Y1611D03*
X2664Y1611D03*
X2864Y2511D03*
X1764Y3811D03*
X1264Y3811D03*
X164Y1311D03*
X2164Y2211D03*
X864Y1211D03*
X1064Y1211D03*
X2064Y2311D03*
G54D12*
X464Y2211D03*
X464Y2611D03*
G54D11*
X1064Y3811D03*
G54D13*
X1919Y161D03*
G54D14*
X2114Y116D03*
G54D13*
X1644Y161D03*
G54D15*
X2064Y1011D03*
X1964Y1011D03*
G54D14*
X1314Y116D03*
G54D15*
X1864Y1011D03*
X1764Y1011D03*
X1664Y1011D03*
X1564Y1011D03*
X1464Y1011D03*
X1364Y1011D03*
G54D13*
X1507Y161D03*
X1782Y161D03*
G54D15*
X2964Y3711D03*
G54D14*
X2464Y4211D03*
G54D15*
X2564Y3711D03*
X2764Y3711D03*
X3164Y3711D03*
X2464Y3711D03*
X2664Y3711D03*
X2864Y3711D03*
X3064Y3711D03*
G54D14*
X3164Y4211D03*
G54D13*
X408Y4561D03*
G54D14*
X214Y4606D03*
G54D13*
X683Y4561D03*
G54D15*
X264Y3711D03*
X364Y3711D03*
G54D14*
X1014Y4606D03*
G54D15*
X464Y3711D03*
X564Y3711D03*
X664Y3711D03*
X764Y3711D03*
X864Y3711D03*
X964Y3711D03*
G54D13*
X820Y4561D03*
X545Y4561D03*
X819Y161D03*
G54D14*
X1014Y116D03*
G54D13*
X544Y161D03*
G54D15*
X964Y1011D03*
X864Y1011D03*
G54D14*
X214Y116D03*
G54D15*
X764Y1011D03*
X664Y1011D03*
X564Y1011D03*
X464Y1011D03*
X364Y1011D03*
X264Y1011D03*
G54D13*
X407Y161D03*
X682Y161D03*
G54D16*
X164Y2549D03*
X164Y2411D03*
X164Y2273D03*
X164Y2549D03*
X164Y2411D03*
X164Y2273D03*
G54D13*
X3119Y161D03*
G54D14*
X3314Y116D03*
G54D13*
X2844Y161D03*
G54D15*
X3264Y1011D03*
X3164Y1011D03*
G54D14*
X2514Y116D03*
G54D15*
X3064Y1011D03*
X2964Y1011D03*
X2864Y1011D03*
X2764Y1011D03*
X2664Y1011D03*
X2564Y1011D03*
G54D13*
X2707Y161D03*
X2982Y161D03*
X1508Y4561D03*
G54D14*
X1314Y4606D03*
G54D13*
X1783Y4561D03*
G54D15*
X1364Y3711D03*
X1464Y3711D03*
G54D14*
X2114Y4606D03*
G54D15*
X1564Y3711D03*
X1664Y3711D03*
X1764Y3711D03*
X1864Y3711D03*
X1964Y3711D03*
X2064Y3711D03*
G54D13*
X1920Y4561D03*
X1645Y4561D03*
G54D17*
X164Y2549D03*
X164Y2549D03*
G54D18*
X2863Y2512D02*
X2860Y2518D01*
D02*
X2671Y1611D02*
X2956Y1611D01*
D02*
X3364Y2403D02*
X3364Y1519D01*
D02*
X2271Y2411D02*
X3356Y2411D01*
D02*
X3156Y1511D02*
X2771Y1511D01*
D02*
X3163Y2212D02*
X2171Y2211D01*
D02*
X263Y1411D02*
X63Y1411D01*
D02*
X63Y1411D02*
X63Y1211D01*
D02*
X2364Y3110D02*
X2264Y3110D01*
D02*
X2264Y3110D02*
X2064Y3110D01*
D02*
X764Y2611D02*
X764Y2910D01*
D02*
X764Y2910D02*
X265Y2910D01*
D02*
X63Y1211D02*
X363Y1210D01*
D02*
X363Y1210D02*
X364Y1030D01*
D02*
X1164Y911D02*
X1165Y711D01*
D02*
X1963Y3411D02*
X1963Y3010D01*
D02*
X2263Y2710D02*
X2253Y2694D01*
D02*
X1864Y3691D02*
X1863Y3411D01*
D02*
X1963Y3010D02*
X2264Y3010D01*
D02*
X2264Y3010D02*
X2263Y2710D01*
D02*
X1863Y3411D02*
X1963Y3411D01*
D02*
X1465Y2189D02*
X1749Y1924D01*
D02*
X481Y2210D02*
X1465Y2189D01*
D02*
X462Y1112D02*
X1263Y1112D01*
D02*
X463Y1030D02*
X462Y1112D01*
D02*
X2164Y2730D02*
X2164Y2910D01*
D02*
X1763Y2910D02*
X1764Y3691D01*
D02*
X2164Y2910D02*
X1763Y2910D01*
D02*
X2165Y1309D02*
X2165Y1711D01*
D02*
X1663Y1309D02*
X2165Y1309D01*
D02*
X1663Y1030D02*
X1663Y1309D01*
D02*
X1562Y910D02*
X1563Y991D01*
D02*
X1263Y910D02*
X1562Y910D01*
D02*
X1263Y1112D02*
X1263Y910D01*
D02*
X563Y3691D02*
X562Y3611D01*
D02*
X1663Y2810D02*
X1664Y3691D01*
D02*
X562Y3611D02*
X1663Y3611D01*
D02*
X2064Y2730D02*
X2064Y2810D01*
D02*
X2064Y2810D02*
X1663Y2810D01*
D02*
X3163Y1911D02*
X3163Y2212D01*
D02*
X3163Y1812D02*
X3163Y1911D01*
D02*
X3163Y1710D02*
X3163Y1812D01*
D02*
X2165Y1711D02*
X3163Y1710D01*
D02*
X871Y1211D02*
X1056Y1211D01*
D02*
X3265Y1209D02*
X3263Y1711D01*
D02*
X2363Y1209D02*
X3265Y1209D01*
D02*
X1663Y3611D02*
X1663Y3711D01*
D02*
X1663Y3711D02*
X1646Y3720D01*
D02*
X3262Y2311D02*
X2071Y2311D01*
D02*
X3263Y1711D02*
X3262Y2311D01*
D02*
X2363Y911D02*
X2363Y1209D01*
D02*
X1764Y910D02*
X2363Y911D01*
D02*
X1764Y1011D02*
X1764Y910D01*
D02*
X1783Y1006D02*
X1764Y1011D01*
D02*
X171Y1311D02*
X1263Y1311D01*
D02*
X2064Y3511D02*
X1963Y3511D01*
D02*
X1665Y1510D02*
X1665Y1610D01*
D02*
X1665Y1610D02*
X1664Y1891D01*
D02*
X1263Y1510D02*
X1665Y1510D01*
D02*
X1263Y1311D02*
X1263Y1510D01*
D02*
X2364Y2730D02*
X2364Y3110D01*
D02*
X1963Y3511D02*
X1964Y3691D01*
D02*
X2064Y3110D02*
X2064Y3511D01*
D02*
X1164Y3712D02*
X1344Y3711D01*
D02*
X1164Y3909D02*
X1164Y3712D01*
D02*
X2464Y3911D02*
X1164Y3909D01*
D02*
X1164Y3909D02*
X265Y3911D01*
D02*
X265Y3911D02*
X264Y3730D01*
D02*
X1344Y3711D02*
X1164Y3712D01*
D02*
X1164Y3712D02*
X1164Y3909D01*
D02*
X2464Y3730D02*
X2464Y3911D01*
D02*
X1056Y3811D02*
X663Y3811D01*
D02*
X663Y3811D02*
X663Y3730D01*
D02*
X1271Y3811D02*
X1756Y3811D01*
D02*
X1764Y3803D02*
X1764Y3730D01*
D02*
X1762Y710D02*
X1763Y991D01*
D02*
X2964Y991D02*
X2965Y710D01*
D02*
X2965Y710D02*
X1762Y710D01*
D02*
X2064Y1811D02*
X2264Y1811D01*
D02*
X2064Y1410D02*
X2064Y1811D01*
D02*
X1463Y1410D02*
X2064Y1410D01*
D02*
X2763Y1811D02*
X2763Y1891D01*
D02*
X2264Y1811D02*
X2763Y1811D01*
D02*
X1464Y1030D02*
X1463Y1410D01*
D02*
X265Y2910D02*
X263Y1411D01*
D02*
X2462Y2610D02*
X764Y2611D01*
D02*
X2463Y2691D02*
X2462Y2610D01*
D02*
X1663Y711D02*
X1765Y711D01*
D02*
X1165Y711D02*
X1663Y711D01*
D02*
X662Y911D02*
X1164Y911D01*
D02*
X663Y991D02*
X662Y911D01*
D02*
X2264Y1210D02*
X2264Y1511D01*
D02*
X1965Y1210D02*
X2264Y1210D01*
D02*
X1765Y1010D02*
X1780Y999D01*
D02*
X1765Y711D02*
X1765Y1010D01*
D02*
X1964Y1030D02*
X1965Y1210D01*
D02*
X3456Y2511D02*
X2863Y2512D01*
G04 End of Copper1*
M02*