; NON-PLATED HOLES START AT T1
; THROUGH (PLATED) HOLES START AT T100
M48
INCH
T1C0.125984
T100C0.040000
T101C0.035000
T102C0.039370
T103C0.098425
T104C0.015748
%
T1
X033144Y001156
X010058Y001156
X013075Y046063
X002152Y046063
X024635Y042107
X025162Y001177
X013188Y001177
X010145Y046063
X002079Y001177
X030127Y019612
X030136Y026603
X021087Y046053
X021171Y001177
X031635Y042107
T100
X001635Y025485
X001635Y022730
X001635Y024107
T101
X004635Y022107
X004635Y026107
T102
X029815Y001608
X017635Y037108
X025635Y027108
X020635Y010107
X008193Y001608
X020635Y037108
X017635Y010107
X026635Y037108
X014635Y010107
X002635Y010107
X030635Y037108
X028443Y001608
X004635Y037108
X003635Y010107
X020635Y027108
X018635Y027108
X020635Y019107
X018635Y037108
X014635Y019107
X025635Y019107
X025635Y037108
X027635Y037108
X024635Y019107
X028635Y027108
X021635Y027108
X004076Y045607
X031193Y001608
X018635Y019107
X009635Y010107
X024635Y027108
X015635Y010107
X028635Y019107
X023635Y019107
X026635Y019107
X007635Y010107
X008635Y010107
X022635Y027108
X028635Y037108
X027635Y027108
X025635Y010107
X006635Y010107
X017826Y045607
X009635Y037108
X027635Y019107
X026635Y010107
X019204Y045607
X019635Y019107
X028635Y010107
X015076Y045607
X008635Y037108
X029635Y037108
X023635Y027108
X030635Y010107
X019635Y037108
X016635Y019107
X027065Y001608
X017815Y001608
X016443Y001608
X031635Y037108
X005635Y010107
X004065Y001608
X018635Y010107
X026635Y027108
X008204Y045607
X027635Y010107
X016635Y037108
X005454Y045607
X032635Y010107
X005635Y037108
X013635Y019107
X029635Y010107
X003635Y037108
X015065Y001608
X024635Y037108
X007635Y037108
X013635Y010107
X015635Y019107
X002635Y037108
X006815Y001608
X006635Y037108
X006826Y045607
X014635Y037108
X017635Y019107
X016635Y010107
X015635Y037108
X017635Y027108
X022635Y019107
X016454Y045607
X013635Y037108
X019635Y010107
X005443Y001608
X019635Y027108
X021635Y019107
X031635Y010107
X019193Y001608
X004635Y010107
T103
X013135Y046057
X002135Y001158
X025135Y001158
X024635Y042107
X021135Y001158
X021135Y046057
X013135Y001158
X010135Y001158
X002135Y046057
X010135Y046057
X033135Y001158
X031635Y042107
T104
X027635Y015107
X034635Y025107
X010635Y038108
X012635Y038108
X008635Y012107
X029635Y016107
X031635Y015107
X022635Y024107
X001635Y013107
X021635Y022107
X026635Y016107
X033635Y024107
X017635Y038108
X028635Y025107
X010635Y012107
X033635Y015107
X020635Y023107
T00
M30
