G04 MADE WITH FRITZING*
G04 WWW.FRITZING.ORG*
G04 DOUBLE SIDED*
G04 HOLES PLATED*
G04 CONTOUR ON CENTER OF CONTOUR VECTOR*
%ASAXBY*%
%FSLAX23Y23*%
%MOIN*%
%OFA0B0*%
%SFA1.0B1.0*%
%ADD10C,0.135984*%
%ADD11C,0.076000*%
%ADD12C,0.049370*%
%ADD13C,0.085000*%
%ADD14C,0.096000*%
%ADD15C,0.148425*%
%ADD16C,0.080000*%
%ADD17C,0.090000*%
%ADD18R,0.090000X0.090000*%
%LNMASK0*%
G90*
G70*
G54D10*
X1308Y4606D03*
X1015Y4606D03*
X215Y4606D03*
X1319Y118D03*
X1006Y116D03*
X208Y118D03*
X3164Y4211D03*
X2464Y4211D03*
X2109Y4605D03*
X2516Y118D03*
X2117Y118D03*
X3314Y116D03*
G54D11*
X2864Y1911D03*
X2764Y1911D03*
X2664Y1911D03*
X2564Y1911D03*
X2464Y1911D03*
X2364Y1911D03*
X2264Y1911D03*
X2164Y1911D03*
X2064Y1911D03*
X1964Y1911D03*
X1864Y1911D03*
X1764Y1911D03*
X1664Y1911D03*
X1564Y1911D03*
X1464Y1911D03*
X1364Y1911D03*
X1764Y2711D03*
X1864Y2711D03*
X1964Y2711D03*
X2064Y2711D03*
X2164Y2711D03*
X2264Y2711D03*
X2364Y2711D03*
X2464Y2711D03*
X2564Y2711D03*
X2664Y2711D03*
X2764Y2711D03*
X2864Y2711D03*
G54D10*
X3013Y1961D03*
X3014Y2660D03*
G54D12*
X3464Y2511D03*
X3364Y1511D03*
X3364Y2411D03*
X2264Y2411D03*
X3164Y1511D03*
X2764Y1511D03*
X2964Y1611D03*
X2664Y1611D03*
X2864Y2511D03*
X1764Y3811D03*
X1264Y3811D03*
X164Y1311D03*
X2164Y2211D03*
X864Y1211D03*
X1064Y1211D03*
X2064Y2311D03*
G54D13*
X464Y2211D03*
X464Y2611D03*
G54D12*
X1064Y3811D03*
G54D14*
X1919Y161D03*
G54D15*
X2114Y116D03*
G54D14*
X1644Y161D03*
G54D16*
X2064Y1011D03*
X1964Y1011D03*
G54D15*
X1314Y116D03*
G54D16*
X1864Y1011D03*
X1764Y1011D03*
X1664Y1011D03*
X1564Y1011D03*
X1464Y1011D03*
X1364Y1011D03*
G54D14*
X1507Y161D03*
X1782Y161D03*
G54D16*
X2964Y3711D03*
G54D15*
X2464Y4211D03*
G54D16*
X2564Y3711D03*
X2764Y3711D03*
X3164Y3711D03*
X2464Y3711D03*
X2664Y3711D03*
X2864Y3711D03*
X3064Y3711D03*
G54D15*
X3164Y4211D03*
G54D14*
X819Y161D03*
G54D15*
X1014Y116D03*
G54D14*
X544Y161D03*
G54D16*
X964Y1011D03*
X864Y1011D03*
G54D15*
X214Y116D03*
G54D16*
X764Y1011D03*
X664Y1011D03*
X564Y1011D03*
X464Y1011D03*
X364Y1011D03*
X264Y1011D03*
G54D14*
X407Y161D03*
X682Y161D03*
G54D17*
X164Y2549D03*
X164Y2411D03*
X164Y2273D03*
X164Y2549D03*
X164Y2411D03*
X164Y2273D03*
G54D14*
X3119Y161D03*
G54D15*
X3314Y116D03*
G54D14*
X2844Y161D03*
G54D16*
X3264Y1011D03*
X3164Y1011D03*
G54D15*
X2514Y116D03*
G54D16*
X3064Y1011D03*
X2964Y1011D03*
X2864Y1011D03*
X2764Y1011D03*
X2664Y1011D03*
X2564Y1011D03*
G54D14*
X2707Y161D03*
X2982Y161D03*
X1508Y4561D03*
G54D15*
X1314Y4606D03*
G54D14*
X1783Y4561D03*
G54D16*
X1364Y3711D03*
X1464Y3711D03*
G54D15*
X2114Y4606D03*
G54D16*
X1564Y3711D03*
X1664Y3711D03*
X1764Y3711D03*
X1864Y3711D03*
X1964Y3711D03*
X2064Y3711D03*
G54D14*
X1920Y4561D03*
X1645Y4561D03*
X408Y4561D03*
G54D15*
X214Y4606D03*
G54D14*
X683Y4561D03*
G54D16*
X264Y3711D03*
X364Y3711D03*
G54D15*
X1014Y4606D03*
G54D16*
X464Y3711D03*
X564Y3711D03*
X664Y3711D03*
X764Y3711D03*
X864Y3711D03*
X964Y3711D03*
G54D14*
X820Y4561D03*
X545Y4561D03*
G54D18*
X164Y2549D03*
X164Y2549D03*
G04 End of Mask0*
M02*