G04 MADE WITH FRITZING*
G04 WWW.FRITZING.ORG*
G04 DOUBLE SIDED*
G04 HOLES PLATED*
G04 CONTOUR ON CENTER OF CONTOUR VECTOR*
%ASAXBY*%
%FSLAX23Y23*%
%MOIN*%
%OFA0B0*%
%SFA1.0B1.0*%
%ADD10C,0.066000*%
%ADD11C,0.039370*%
%ADD12C,0.075000*%
%ADD13C,0.086000*%
%ADD14C,0.138425*%
%ADD15C,0.070000*%
%ADD16C,0.080000*%
%ADD17R,0.080000X0.080000*%
%ADD18C,0.024000*%
%LNCOPPER0*%
G90*
G70*
G54D10*
X2864Y1911D03*
X2764Y1911D03*
X2664Y1911D03*
X2564Y1911D03*
X2464Y1911D03*
X2364Y1911D03*
X2264Y1911D03*
X2164Y1911D03*
X2064Y1911D03*
X1964Y1911D03*
X1864Y1911D03*
X1764Y1911D03*
X1664Y1911D03*
X1564Y1911D03*
X1464Y1911D03*
X1364Y1911D03*
X1764Y2711D03*
X1864Y2711D03*
X1964Y2711D03*
X2064Y2711D03*
X2164Y2711D03*
X2264Y2711D03*
X2364Y2711D03*
X2464Y2711D03*
X2564Y2711D03*
X2664Y2711D03*
X2764Y2711D03*
X2864Y2711D03*
G54D11*
X3464Y2511D03*
X3364Y1511D03*
X3364Y2411D03*
X2264Y2411D03*
X3164Y1511D03*
X2764Y1511D03*
X2964Y1611D03*
X2664Y1611D03*
X2864Y2511D03*
X1764Y3811D03*
X1264Y3811D03*
X164Y1311D03*
X2164Y2211D03*
X864Y1211D03*
X1064Y1211D03*
X2064Y2311D03*
G54D12*
X464Y2211D03*
X464Y2611D03*
G54D11*
X1064Y3811D03*
G54D13*
X1919Y161D03*
G54D14*
X2114Y116D03*
G54D13*
X1644Y161D03*
G54D15*
X2064Y1011D03*
X1964Y1011D03*
G54D14*
X1314Y116D03*
G54D15*
X1864Y1011D03*
X1764Y1011D03*
X1664Y1011D03*
X1564Y1011D03*
X1464Y1011D03*
X1364Y1011D03*
G54D13*
X1507Y161D03*
X1782Y161D03*
G54D15*
X2964Y3711D03*
G54D14*
X2464Y4211D03*
G54D15*
X2564Y3711D03*
X2764Y3711D03*
X3164Y3711D03*
X2464Y3711D03*
X2664Y3711D03*
X2864Y3711D03*
X3064Y3711D03*
G54D14*
X3164Y4211D03*
G54D13*
X819Y161D03*
G54D14*
X1014Y116D03*
G54D13*
X544Y161D03*
G54D15*
X964Y1011D03*
X864Y1011D03*
G54D14*
X214Y116D03*
G54D15*
X764Y1011D03*
X664Y1011D03*
X564Y1011D03*
X464Y1011D03*
X364Y1011D03*
X264Y1011D03*
G54D13*
X407Y161D03*
X682Y161D03*
G54D16*
X164Y2549D03*
X164Y2411D03*
X164Y2273D03*
X164Y2549D03*
X164Y2411D03*
X164Y2273D03*
G54D13*
X3119Y161D03*
G54D14*
X3314Y116D03*
G54D13*
X2844Y161D03*
G54D15*
X3264Y1011D03*
X3164Y1011D03*
G54D14*
X2514Y116D03*
G54D15*
X3064Y1011D03*
X2964Y1011D03*
X2864Y1011D03*
X2764Y1011D03*
X2664Y1011D03*
X2564Y1011D03*
G54D13*
X2707Y161D03*
X2982Y161D03*
X1508Y4561D03*
G54D14*
X1314Y4606D03*
G54D13*
X1783Y4561D03*
G54D15*
X1364Y3711D03*
X1464Y3711D03*
G54D14*
X2114Y4606D03*
G54D15*
X1564Y3711D03*
X1664Y3711D03*
X1764Y3711D03*
X1864Y3711D03*
X1964Y3711D03*
X2064Y3711D03*
G54D13*
X1920Y4561D03*
X1645Y4561D03*
X408Y4561D03*
G54D14*
X214Y4606D03*
G54D13*
X683Y4561D03*
G54D15*
X264Y3711D03*
X364Y3711D03*
G54D14*
X1014Y4606D03*
G54D15*
X464Y3711D03*
X564Y3711D03*
X664Y3711D03*
X764Y3711D03*
X864Y3711D03*
X964Y3711D03*
G54D13*
X820Y4561D03*
X545Y4561D03*
G54D17*
X164Y2549D03*
X164Y2549D03*
G54D18*
X3064Y3212D02*
X3064Y3691D01*
D02*
X3262Y3212D02*
X3064Y3212D01*
D02*
X264Y3511D02*
X264Y3691D01*
D02*
X3465Y1612D02*
X2971Y1611D01*
D02*
X2665Y2512D02*
X2664Y2691D01*
D02*
X2856Y2511D02*
X2665Y2512D01*
D02*
X3356Y1511D02*
X3171Y1511D01*
D02*
X2764Y1030D02*
X2764Y1503D01*
D02*
X2664Y1030D02*
X2664Y1603D01*
D02*
X3464Y2503D02*
X3465Y1612D01*
D02*
X1863Y3410D02*
X1864Y3410D01*
D02*
X1163Y3411D02*
X1863Y3410D01*
D02*
X862Y2910D02*
X1764Y2911D01*
D02*
X1665Y1612D02*
X1664Y1891D01*
D02*
X2263Y1612D02*
X1665Y1612D01*
D02*
X263Y3011D02*
X264Y3511D01*
D02*
X364Y3011D02*
X263Y3011D01*
D02*
X1963Y1111D02*
X1963Y1112D01*
D02*
X1964Y1030D02*
X1963Y1111D01*
D02*
X2164Y2219D02*
X2164Y2691D01*
D02*
X563Y1209D02*
X856Y1211D01*
D02*
X563Y1030D02*
X563Y1209D01*
D02*
X2064Y2319D02*
X2064Y2691D01*
D02*
X662Y2610D02*
X365Y2610D01*
D02*
X3164Y1013D02*
X3165Y1030D01*
D02*
X3164Y712D02*
X3164Y1013D01*
D02*
X2165Y712D02*
X3164Y712D01*
D02*
X2165Y1113D02*
X2165Y712D01*
D02*
X1963Y1112D02*
X2165Y1113D01*
D02*
X1463Y1812D02*
X662Y1812D01*
D02*
X1463Y1912D02*
X1463Y1812D01*
D02*
X1457Y1929D02*
X1463Y1912D01*
D02*
X2664Y1930D02*
X2663Y2110D01*
D02*
X764Y3730D02*
X765Y3811D01*
D02*
X963Y3811D02*
X1164Y3610D01*
D02*
X765Y3811D02*
X963Y3811D01*
D02*
X1864Y3410D02*
X1864Y3691D01*
D02*
X1164Y3610D02*
X1163Y3411D01*
D02*
X365Y2610D02*
X446Y2611D01*
D02*
X662Y1812D02*
X662Y2610D01*
D02*
X2663Y2110D02*
X3262Y2109D01*
D02*
X163Y2253D02*
X163Y2212D01*
D02*
X63Y2212D02*
X63Y2710D01*
D02*
X65Y3811D02*
X365Y3811D01*
D02*
X365Y4011D02*
X364Y3730D01*
D02*
X1463Y3730D02*
X1463Y4011D01*
D02*
X1463Y4011D02*
X365Y4011D01*
D02*
X1463Y4011D02*
X1463Y3730D01*
D02*
X2564Y3730D02*
X2564Y4011D01*
D02*
X2564Y4011D02*
X1463Y4011D01*
D02*
X3262Y2109D02*
X3262Y3212D01*
D02*
X163Y2212D02*
X63Y2212D01*
D02*
X64Y3011D02*
X65Y3811D01*
D02*
X63Y2710D02*
X64Y3011D01*
D02*
X365Y3811D02*
X364Y3730D01*
D02*
X264Y2611D02*
X181Y2559D01*
D02*
X264Y2212D02*
X264Y2411D01*
D02*
X862Y812D02*
X863Y991D01*
D02*
X1263Y1209D02*
X1071Y1211D01*
D02*
X1263Y812D02*
X1263Y1209D01*
D02*
X1663Y812D02*
X1263Y812D01*
D02*
X1663Y991D02*
X1663Y812D01*
D02*
X164Y2253D02*
X163Y1311D01*
D02*
X163Y1311D02*
X156Y1313D01*
D02*
X264Y2411D02*
X184Y2411D01*
D02*
X446Y2211D02*
X264Y2212D01*
D02*
X446Y2611D02*
X264Y2611D01*
D02*
X1071Y3811D02*
X1256Y3811D01*
D02*
X162Y812D02*
X862Y812D01*
D02*
X164Y1303D02*
X162Y812D01*
D02*
X2864Y3112D02*
X2864Y2730D01*
D02*
X2764Y3691D02*
X2764Y3112D01*
D02*
X2764Y3112D02*
X2864Y3112D01*
D02*
X2764Y3011D02*
X2663Y3011D01*
D02*
X2663Y3011D02*
X2663Y3712D01*
D02*
X2764Y2730D02*
X2764Y3011D01*
D02*
X2663Y3712D02*
X2661Y3730D01*
D02*
X1464Y1611D02*
X1464Y1891D01*
D02*
X964Y612D02*
X964Y1611D01*
D02*
X3263Y612D02*
X2064Y612D01*
D02*
X2064Y612D02*
X964Y612D01*
D02*
X2064Y991D02*
X2064Y612D01*
D02*
X964Y1611D02*
X1464Y1611D01*
D02*
X1464Y1611D02*
X1464Y1891D01*
D02*
X964Y1030D02*
X964Y1611D01*
D02*
X964Y1611D02*
X1464Y1611D01*
D02*
X1564Y1410D02*
X2462Y1410D01*
D02*
X2462Y1410D02*
X2462Y911D01*
D02*
X2764Y911D02*
X2764Y991D01*
D02*
X1665Y1309D02*
X1664Y1030D01*
D02*
X2365Y1309D02*
X1665Y1309D01*
D02*
X2365Y810D02*
X2365Y1309D01*
D02*
X2864Y991D02*
X2864Y810D01*
D02*
X2864Y810D02*
X2365Y810D01*
D02*
X2064Y612D02*
X2064Y991D01*
D02*
X3264Y991D02*
X3263Y612D01*
D02*
X2564Y2910D02*
X2564Y2730D01*
D02*
X1764Y2911D02*
X2564Y2910D01*
D02*
X863Y3691D02*
X862Y2910D01*
D02*
X2264Y1511D02*
X2263Y1612D01*
D02*
X446Y2609D02*
X462Y2611D01*
D02*
X3163Y1410D02*
X2864Y1410D01*
D02*
X3163Y1030D02*
X3163Y1410D01*
D02*
X2864Y1410D02*
X2864Y1891D01*
D02*
X2462Y911D02*
X2764Y911D01*
D02*
X1564Y1030D02*
X1564Y1410D01*
D02*
X462Y3011D02*
X364Y3011D01*
D02*
X462Y2611D02*
X462Y3011D01*
D02*
X2264Y2691D02*
X2264Y2419D01*
G04 End of Copper0*
M02*