<?xml version="1.0" encoding="UTF-8" standalone="no"?>
<!DOCTYPE svg PUBLIC "-//W3C//DTD SVG 1.1//EN" "http://www.w3.org/Graphics/SVG/1.1/DTD/svg11.dtd">
<svg xmlns="http://www.w3.org/2000/svg" xmlns:xlink="http://www.w3.org/1999/xlink" version="1.1" width="156pt" height="58pt" viewBox="0 0 156 58">
<g enable-background="new">
<g id="Layer-1" data-name="Layer">
<clipPath id="cp0">
<path transform="matrix(1,0,0,-1,0,58)" d="M 0 58 L 156 58 L 156 0 L 0 0 Z "/>
</clipPath>
<g clip-path="url(#cp0)">
<clipPath id="cp1">
<path transform="matrix(1,0,0,-1,0,58)" d="M 0 0 L 156 0 L 156 58 L 0 58 Z "/>
</clipPath>
<g clip-path="url(#cp1)">
<path transform="matrix(1,0,0,-1,0,58)" d="M 124.205 29.002 C 123.507 29.12 117.872 29.674 114.263 29.483 C 112.255 29.376 103.734 28.425 100.05 27.697 C 96.82 27.059 92.304 26.055 87.364 25.986 C 81.255 25.902 78.372 27.219 76.761 27.881 C 75.151 28.546 73.849 29.745 73.315 30.352 C 72.837 30.901 72.806 31.817 72.806 31.817 C 72.806 31.817 78.105 37.478 80.649 42.438 C 82.825 46.676 83.47 49.788 83.66 51.274 C 83.854 52.759 83.474 53.987 82.705 54.574 C 81.93 55.16 80.733 55.312 79.616 54.691 C 78.071 53.837 76.659 52.127 75.529 50.534 C 74.403 48.939 72.837 46.631 71.696 42.723 C 70.454 38.452 70.251 36.634 70.218 35.653 C 70.183 34.674 70.304 32.969 70.304 32.969 C 70.304 32.969 69.043 31.268 67.642 29.917 C 66.241 28.567 64.675 27.344 62.767 27.664 C 61.296 27.912 61.157 29.61 61.14 30.5 C 61.124 31.386 61.537 32.538 61.665 33.514 C 61.795 34.487 61.876 34.207 61.471 34.592 C 61.063 34.981 60.499 34.815 59.703 34.795 C 58.909 34.776 59.08 34.304 58.632 33.526 C 58.187 32.749 57.108 30.49 55.809 29.321 C 54.508 28.153 53.97 28.18 52.946 28.311 C 51.924 28.44 51.331 28.926 50.897 29.829 C 50.462 30.731 50.621 33.991 50.562 34.881 C 50.497 35.77 50.071 36.41 49.319 36.791 C 48.411 37.254 47.417 37.012 46.562 36.307 C 45.676 35.582 44.162 33.47 43.521 32.42 C 42.878 31.368 41.54 29.87 41.188 29.882 C 40.771 29.897 40.81 30.602 40.953 31.809 C 41.048 32.608 41.14 33.668 41.169 34.604 C 41.203 35.534 40.702 35.925 39.776 36.144 C 38.853 36.362 38.069 35.868 37.5 35.057 C 36.843 34.124 35.573 32.561 34.255 30.881 C 32.935 29.202 30.833 27.219 30.042 27.291 C 29.249 27.367 28.896 27.936 28.603 28.881 C 28.31 29.826 28.763 33.449 28.903 34.797 C 29.044 36.147 29.948 42.041 30.617 45.145 C 31.286 48.248 31.535 48.707 32.128 50.973 C 32.719 53.239 32.894 52.85 32.696 53.93 C 32.502 55.01 31.942 54.992 31.339 55.153 C 30.739 55.314 30.47 55.325 29.901 55.065 C 29.331 54.803 28.896 54.578 28.521 53.145 C 28.144 51.71 27.354 49.25 25.085 44.428 C 22.816 39.606 20.2 35.407 17.429 31.127 C 15.04 27.438 13.849 27.096 13.028 27.279 C 12.345 27.434 12.278 28.387 12.261 29.227 C 12.241 30.069 12.488 31.259 12.913 32.738 C 13.339 34.215 14.458 37.127 15.475 39.564 C 16.495 42.002 18.583 46.28 20.283 50.048 C 22.144 54.173 22.478 55.993 22.664 56.577 C 22.905 57.333 22.166 57.64 21.567 57.894 C 20.97 58.149 20.007 57.864 20.007 57.864 C 19.371 57.657 18.893 57.508 18.357 56.919 C 17.822 56.331 16.269 55.262 15.547 55.045 C 15.021 54.885 14.989 54.606 15.284 54.096 C 15.284 54.096 15.427 53.524 16.084 53.596 C 16.739 53.667 16.592 53.754 17.295 53.87 C 17.997 53.985 18.068 53.18 17.603 51.889 C 17.136 50.6 15.286 45.993 14.056 42.721 C 12.819 39.452 9.624 31.999 9.307 28.477 C 9.048 25.65 8.829 23.816 10.587 22.256 C 12.921 20.184 18.032 24.398 19.829 27.871 C 21.022 30.17 25.438 38.465 26.245 40.209 C 27.052 41.955 28.56 45.124 28.296 44.337 C 28.038 43.553 26.567 37.305 25.905 31.727 C 25.242 26.152 27.166 25.631 28.497 25.023 C 29.829 24.418 31.565 25.51 32.472 26.18 C 33.386 26.846 36.767 31.247 37.065 31.844 C 37.366 32.439 38.097 32.438 38.083 32.111 C 38.074 31.784 38.087 29.204 38.562 28.067 C 39.036 26.93 39.48 26.355 40.817 25.84 C 42.149 25.328 42.919 26.199 44.466 28.356 C 46.058 30.571 46.864 32.641 47.229 33.084 C 47.731 33.692 47.71 32.749 47.793 31.851 C 47.886 30.86 47.934 29.186 49.144 27.742 C 50.353 26.301 51.183 25.574 53.618 25.863 C 56.056 26.152 58.396 29.426 58.396 29.426 C 58.396 29.426 58.601 27.226 60.179 25.725 C 61.761 24.221 62.54 24.27 64.931 24.562 C 67.322 24.848 71.252 30.004 71.252 30.004 C 71.252 30.004 73.042 27.617 75.199 26.412 C 77.894 24.905 83.107 23.887 87.585 23.824 C 92.064 23.762 99.33 25.074 105.058 26.492 C 110.105 27.742 116.108 28.409 118.349 28.469 C 120.593 28.532 123.532 27.986 123.772 28.209 C 124.014 28.434 124.901 28.883 124.205 29.002 M 75.728 46.348 C 78.007 50.235 80.05 52.104 80.706 51.84 C 81.36 51.577 81.356 51.397 80.882 49.965 C 80.411 48.538 79.449 45.198 76.915 41.61 C 74.376 38.022 72.427 35.56 72.427 35.56 C 72.427 35.56 72.814 41.383 75.728 46.348 " fill="#0095c8" fill-rule="evenodd"/>
<path transform="matrix(1,0,0,-1,0,58)" d="M 59.749 41.19 C 59.753 41.245 59.661 41.381 59.937 41.353 C 60.21 41.325 60.452 41.231 60.481 41.22 C 60.509 41.209 60.678 41.204 60.678 41.204 C 60.678 41.204 60.837 41.909 60.906 41.982 C 60.974 42.054 61.115 42.08 61.187 42.218 C 61.258 42.358 61.378 42.561 61.629 42.667 C 61.878 42.772 61.87 42.783 62.126 42.772 C 62.38 42.764 62.702 42.78 62.89 42.708 C 63.079 42.635 63.132 42.614 63.26 42.468 C 63.388 42.321 63.546 42.231 63.538 42.051 C 63.533 41.872 63.538 41.824 63.517 41.682 C 63.493 41.542 63.412 41.469 63.495 41.341 C 63.575 41.217 63.61 41.139 63.589 40.989 C 63.561 40.838 63.631 40.628 63.487 40.567 C 63.343 40.504 62.89 40.256 62.698 40.215 C 62.509 40.174 61.849 39.97 61.675 39.967 C 61.507 39.965 60.956 39.955 60.776 39.97 C 60.599 39.986 60.186 40.04 60.115 40.183 C 60.042 40.329 59.978 40.387 59.925 40.559 C 59.876 40.73 59.749 41.19 59.749 41.19 " fill="#0095c8" fill-rule="evenodd"/>
<path transform="matrix(1,0,0,-1,0,58)" d="M 0 14.318 L 1.513 14.318 L 1.513 9.971 C 1.513 8.686 1.922 7.846 3.075 7.846 C 4.232 7.846 4.641 8.686 4.641 9.971 L 4.641 14.318 L 6.153 14.318 L 6.153 9.508 C 6.153 7.49 5.011 6.658 3.075 6.658 C 1.144 6.658 0 7.49 0 9.508 Z " fill="#231f20"/>
<path transform="matrix(1,0,0,-1,0,58)" d="M 8.363 14.318 L 10.22 14.318 L 13.092 8.686 L 13.114 8.686 L 13.114 14.318 L 14.562 14.318 L 14.562 6.787 L 12.712 6.787 L 9.831 12.42 L 9.812 12.42 L 9.812 6.787 L 8.363 6.787 Z " fill="#231f20"/>
<path transform="matrix(1,0,0,-1,0,58)" d="M 16.695 14.318 L 18.206 14.318 L 18.206 6.7869999 L 16.695 6.7869999 Z " fill="#231f20"/>
<path transform="matrix(1,0,0,-1,0,58)" d="M 20.417 14.318 L 21.929 14.318 L 21.929 7.975 L 24.854 7.975 L 24.854 6.787 L 20.417 6.787 Z " fill="#231f20"/>
<path transform="matrix(1,0,0,-1,0,58)" d="M 30.704 4.088 L 29.956002 4.088 L 29.956002 14.882999 L 30.704 14.882999 Z " fill="#231f20"/>
<path transform="matrix(1,0,0,-1,0,58)" d="M 42.045 9.42 C 42.045 7.199 40.417 6.658 39.313 6.658 C 38.214 6.658 36.586 7.199 36.586 9.42 L 36.586 14.318 L 37.327 14.318 L 37.327 9.42 C 37.327 8.191 38.011 7.305 39.313 7.305 C 40.621 7.305 41.3 8.191 41.3 9.42 L 41.3 14.318 L 42.045 14.318 Z " fill="#231f20"/>
<path transform="matrix(1,0,0,-1,0,58)" d="M 44.354 10.996 C 44.354 11.418 44.354 11.85 44.31 12.289 L 44.97 12.289 L 44.97 11.311 L 44.991 11.311 C 45.218 11.806 45.631 12.42 46.774 12.42 C 48.13 12.42 48.649 11.514 48.649 10.309 L 48.649 6.787 L 47.969 6.787 L 47.969 10.131 C 47.969 11.172 47.604 11.838 46.663 11.838 C 45.423 11.838 45.036 10.748 45.036 9.831 L 45.036 6.787 L 44.354 6.787 Z " fill="#231f20"/>
<path transform="matrix(1,0,0,-1,0,58)" d="M 51.63 13.762 L 50.948 13.762 L 50.948 14.666 L 51.63 14.666 Z M 50.948 12.289 L 51.63 12.289 L 51.63 6.7869999 L 50.948 6.7869999 Z " fill="#231f20"/>
<path transform="matrix(1,0,0,-1,0,58)" d="M 55.851 6.787 L 55.052 6.787 L 53.185 12.289 L 53.929 12.289 L 55.45 7.533 L 55.47 7.533 L 57.069 12.289 L 57.778 12.289 Z " fill="#231f20"/>
<path transform="matrix(1,0,0,-1,0,58)" d="M 63.015 6.959 C 62.539 6.766 61.924 6.658 61.416 6.658 C 59.595 6.658 58.912 7.888 58.912 9.537 C 58.912 11.223 59.842 12.42 61.231 12.42 C 62.788 12.42 63.423 11.172 63.423 9.691 L 63.423 9.346 L 59.655 9.346 C 59.655 8.181 60.284 7.24 61.472 7.24 C 61.966 7.24 62.69 7.447 63.015 7.652 L 63.015 6.959 M 62.681 9.928 C 62.681 10.889 62.29 11.838 61.277 11.838 C 60.271 11.838 59.655 10.834 59.655 9.928 Z " fill="#231f20"/>
<path transform="matrix(1,0,0,-1,0,58)" d="M 65.312 11.063 C 65.312 11.664 65.312 11.893 65.269 12.289 L 65.951 12.289 L 65.951 11.232 L 65.97 11.232 C 66.218 11.85 66.685 12.42 67.382 12.42 C 67.546 12.42 67.739 12.389 67.858 12.356 L 67.858 11.643 C 67.72 11.689 67.536 11.709 67.362 11.709 C 66.283 11.709 65.991 10.5 65.991 9.508 L 65.991 6.787 L 65.312 6.787 Z " fill="#231f20"/>
<path transform="matrix(1,0,0,-1,0,58)" d="M 69.079 7.586 C 69.486 7.383 69.987 7.24 70.513 7.24 C 71.159 7.24 71.733 7.598 71.733 8.223 C 71.733 9.529 69.089 9.326 69.089 10.92 C 69.089 12.01 69.977 12.42 70.88 12.42 C 71.173 12.42 71.755 12.356 72.239 12.174 L 72.174 11.58 C 71.822 11.74 71.333 11.838 70.956 11.838 C 70.255 11.838 69.769 11.621 69.769 10.92 C 69.769 9.896 72.479 10.027 72.479 8.223 C 72.479 7.059 71.386 6.658 70.556 6.658 C 70.028 6.658 69.499 6.721 69.015 6.919 Z " fill="#231f20"/>
<path transform="matrix(1,0,0,-1,0,58)" d="M 74.974 13.762 L 74.292 13.762 L 74.292 14.666 L 74.974 14.666 Z M 74.292 12.289 L 74.974 12.289 L 74.974 6.7869999 L 74.292 6.7869999 Z " fill="#231f20"/>
<path transform="matrix(1,0,0,-1,0,58)" d="M 79.655 11.709 L 78.403 11.709 L 78.403 8.148 C 78.403 7.652 78.585 7.24 79.138 7.24 C 79.396 7.24 79.567 7.297 79.765 7.371 L 79.808 6.811 C 79.645 6.742 79.309 6.658 78.975 6.658 C 77.766 6.658 77.722 7.49 77.722 8.494 L 77.722 11.709 L 76.644 11.709 L 76.644 12.289 L 77.722 12.289 L 77.722 13.619 L 78.403 13.855 L 78.403 12.289 L 79.655 12.289 Z " fill="#231f20"/>
<path transform="matrix(1,0,0,-1,0,58)" d="M 85.157 6.959 C 84.685 6.766 84.066 6.658 83.562 6.658 C 81.737 6.658 81.056 7.888 81.056 9.537 C 81.056 11.223 81.985 12.42 83.378 12.42 C 84.931 12.42 85.566 11.172 85.566 9.691 L 85.566 9.346 L 81.802 9.346 C 81.802 8.181 82.43 7.24 83.616 7.24 C 84.111 7.24 84.832 7.447 85.157 7.652 L 85.157 6.959 M 84.823 9.928 C 84.823 10.889 84.433 11.838 83.419 11.838 C 82.417 11.838 81.802 10.834 81.802 9.928 L 84.823 9.928 M 83.69 14.418 L 84.542 14.418 L 83.185 12.863 L 82.687 12.863 Z " fill="#231f20"/>
<path transform="matrix(1,0,0,-1,0,58)" d="M 95.41 6.787 L 94.729 6.787 L 94.729 7.664 L 94.709 7.664 C 94.342 6.959 93.78 6.658 92.991 6.658 C 91.481 6.658 90.728 7.908 90.728 9.537 C 90.728 11.211 91.376 12.42 92.991 12.42 C 94.073 12.42 94.613 11.635 94.709 11.361 L 94.729 11.361 L 94.729 14.883 L 95.41 14.883 L 95.41 6.787 M 93.102 7.24 C 94.31 7.24 94.729 8.535 94.729 9.537 C 94.729 10.543 94.31 11.838 93.102 11.838 C 91.804 11.838 91.472 10.606 91.472 9.537 C 91.472 8.471 91.804 7.24 93.102 7.24 " fill="#231f20"/>
<path transform="matrix(1,0,0,-1,0,58)" d="M 101.337 6.959 C 100.861 6.766 100.246 6.658 99.736 6.658 C 97.915 6.658 97.233 7.888 97.233 9.537 C 97.233 11.223 98.164 12.42 99.554 12.42 C 101.108 12.42 101.743 11.172 101.743 9.691 L 101.743 9.346 L 97.978 9.346 C 97.978 8.181 98.606 7.24 99.794 7.24 C 100.286 7.24 101.013 7.447 101.337 7.652 L 101.337 6.959 M 100.999 9.928 C 100.999 10.889 100.614 11.838 99.599 11.838 C 98.595 11.838 97.978 10.834 97.978 9.928 Z " fill="#231f20"/>
<path transform="matrix(1,0,0,-1,0,58)" d="M 107.237 14.318 L 107.985 14.318 L 107.985 7.436 L 111.007 7.436 L 111.007 6.787 L 107.237 6.787 Z " fill="#231f20"/>
<path transform="matrix(1,0,0,-1,0,58)" d="M 115.775 7.672 L 115.75 7.672 C 115.45 7.016 114.685 6.658 114.005 6.658 C 112.44 6.658 112.192 7.717 112.192 8.212 C 112.192 10.059 114.155 10.145 115.579 10.145 L 115.71 10.145 L 115.71 10.426 C 115.71 11.361 115.374 11.838 114.462 11.838 C 113.887 11.838 113.349 11.709 112.839 11.387 L 112.839 12.043 C 113.257 12.248 113.972 12.42 114.462 12.42 C 115.817 12.42 116.39 11.806 116.39 10.371 L 116.39 7.943 C 116.39 7.5 116.39 7.166 116.442 6.787 L 115.775 6.787 L 115.775 7.672 M 115.71 9.561 L 115.517 9.561 C 114.339 9.561 112.936 9.441 112.936 8.234 C 112.936 7.51 113.455 7.24 114.082 7.24 C 115.677 7.24 115.71 8.633 115.71 9.227 Z " fill="#231f20"/>
<path transform="matrix(1,0,0,-1,0,58)" d="M 122.896 8.084 C 122.896 7.664 122.896 7.229 122.942 6.787 L 122.28 6.787 L 122.28 7.77 L 122.262 7.77 C 122.03 7.273 121.624 6.658 120.483 6.658 C 119.122 6.658 118.603 7.564 118.603 8.771 L 118.603 12.289 L 119.282 12.289 L 119.282 8.947 C 119.282 7.908 119.65 7.24 120.589 7.24 C 121.827 7.24 122.217 8.332 122.217 9.248 L 122.217 12.289 L 122.896 12.289 Z " fill="#231f20"/>
<path transform="matrix(1,0,0,-1,0,58)" d="M 124.774 7.586 C 125.185 7.383 125.681 7.24 126.21 7.24 C 126.858 7.24 127.43 7.598 127.43 8.223 C 127.43 9.529 124.786 9.326 124.786 10.92 C 124.786 12.01 125.671 12.42 126.576 12.42 C 126.866 12.42 127.452 12.356 127.937 12.174 L 127.871 11.58 C 127.517 11.74 127.028 11.838 126.653 11.838 C 125.953 11.838 125.466 11.621 125.466 10.92 C 125.466 9.896 128.175 10.027 128.175 8.223 C 128.175 7.059 127.086 6.658 126.254 6.658 C 125.727 6.658 125.197 6.721 124.712 6.919 Z " fill="#231f20"/>
<path transform="matrix(1,0,0,-1,0,58)" d="M 133.149 7.672 L 133.128 7.672 C 132.826 7.016 132.062 6.658 131.382 6.658 C 129.814 6.658 129.568 7.717 129.568 8.212 C 129.568 10.059 131.53 10.145 132.954 10.145 L 133.085 10.145 L 133.085 10.426 C 133.085 11.361 132.749 11.838 131.829 11.838 C 131.262 11.838 130.719 11.709 130.214 11.387 L 130.214 12.043 C 130.634 12.248 131.347 12.42 131.829 12.42 C 133.192 12.42 133.765 11.806 133.765 10.371 L 133.765 7.943 C 133.765 7.5 133.765 7.166 133.818 6.787 L 133.149 6.787 L 133.149 7.672 M 133.085 9.561 L 132.891 9.561 C 131.714 9.561 130.308 9.441 130.308 8.234 C 130.308 7.51 130.829 7.24 131.457 7.24 C 133.052 7.24 133.085 8.633 133.085 9.227 Z " fill="#231f20"/>
<path transform="matrix(1,0,0,-1,0,58)" d="M 135.978 10.996 C 135.978 11.418 135.978 11.85 135.933 12.289 L 136.593 12.289 L 136.593 11.311 L 136.613 11.311 C 136.841 11.806 137.253 12.42 138.394 12.42 C 139.755 12.42 140.272 11.514 140.272 10.309 L 140.272 6.787 L 139.595 6.787 L 139.595 10.131 C 139.595 11.172 139.226 11.838 138.286 11.838 C 137.048 11.838 136.655 10.748 136.655 9.831 L 136.655 6.787 L 135.978 6.787 Z " fill="#231f20"/>
<path transform="matrix(1,0,0,-1,0,58)" d="M 142.569 10.996 C 142.569 11.418 142.569 11.85 142.526 12.289 L 143.188 12.289 L 143.188 11.311 L 143.208 11.311 C 143.434 11.806 143.843 12.42 144.987 12.42 C 146.349 12.42 146.865 11.514 146.865 10.309 L 146.865 6.787 L 146.185 6.787 L 146.185 10.131 C 146.185 11.172 145.818 11.838 144.882 11.838 C 143.638 11.838 143.251 10.748 143.251 9.831 L 143.251 6.787 L 142.569 6.787 Z " fill="#231f20"/>
<path transform="matrix(1,0,0,-1,0,58)" d="M 152.854 6.959 C 152.382 6.766 151.763 6.658 151.261 6.658 C 149.433 6.658 148.757 7.888 148.757 9.537 C 148.757 11.223 149.683 12.42 151.073 12.42 C 152.627 12.42 153.267 11.172 153.267 9.691 L 153.267 9.346 L 149.499 9.346 C 149.499 8.181 150.126 7.24 151.313 7.24 C 151.81 7.24 152.533 7.447 152.854 7.652 L 152.854 6.959 M 152.522 9.928 C 152.522 10.889 152.132 11.838 151.117 11.838 C 150.114 11.838 149.499 10.834 149.499 9.928 Z " fill="#231f20"/>
</g>
</g>
</g>
</g>
</svg>
